<?xml version="1.0" encoding="UTF-8"?>
<svg version="1.1" xmlns="http://www.w3.org/2000/svg" width="512" height="512">
<path d="M0 0 C1.07548096 0.49330811 2.15096191 0.98661621 3.2590332 1.49487305 C4.42136475 2.04570557 5.58369629 2.59653809 6.78125 3.1640625 C8.04505322 3.74880542 9.30964662 4.33184298 10.57495117 4.91333008 C13.33450288 6.18285734 16.09069414 7.45934235 18.84521484 8.73974609 C25.89177931 12.00577218 32.98540534 15.167947 40.07226562 18.34527588 C44.3482491 20.26373428 48.62125128 22.18881041 52.89453125 24.11328125 C54.63100882 24.89504912 56.3674997 25.6767874 58.10400391 26.45849609 C58.96157288 26.84455017 59.81914185 27.23060425 60.70269775 27.62835693 C64.90972232 29.52210054 69.11695785 31.41537526 73.32421875 33.30859375 C74.14800018 33.67928986 74.97178162 34.04998596 75.82052612 34.43191528 C79.94899061 36.28967124 84.07749895 38.14732966 88.20605469 40.00488281 C96.01384363 43.51794881 103.82123199 47.03189759 111.62734985 50.54867554 C115.31205145 52.20863139 118.99696005 53.86812742 122.68188477 55.52758789 C124.43752224 56.31837351 126.19305838 57.10938413 127.94848633 57.90063477 C130.38336953 58.99812964 132.81860171 60.09484669 135.25390625 61.19140625 C135.96563492 61.51245834 136.67736359 61.83351044 137.41065979 62.16429138 C138.74799225 62.76611351 140.08857278 63.36078023 141.43260193 63.94749451 C143.12525514 64.71804829 144.76721863 65.59751874 146.40087891 66.48632812 C152.02222636 68.86072253 158.4099197 68.22993989 164.39453125 68.23046875 C165.77305996 68.24226324 167.151576 68.25563248 168.53007507 68.27049255 C172.14784784 68.30654357 175.76550844 68.32683213 179.38342285 68.34204102 C185.16163441 68.36693197 190.93959784 68.4070605 196.7175808 68.46394157 C198.71916644 68.48006309 200.72084053 68.48366995 202.7224884 68.48695374 C215.72540039 68.59394899 226.76604301 70.12291645 236.6796875 79.0859375 C242.37472661 85.14212543 245.52658927 92.26017156 245.53851891 100.60629654 C245.5449678 101.75114619 245.55141669 102.89599585 245.558061 104.07553792 C245.5534152 105.94760069 245.5534152 105.94760069 245.54867554 107.85748291 C245.55241386 109.20434662 245.55701611 110.55120817 245.56240618 111.89806628 C245.57462927 115.59354365 245.57437654 119.28893044 245.57201743 122.9844234 C245.57160909 126.97229069 245.58265014 130.96012901 245.59213257 134.94798279 C245.60874002 142.7591161 245.61424201 150.57021923 245.61535732 158.38136873 C245.61630797 164.73173584 245.6204191 171.082093 245.62675858 177.43245697 C245.64437072 195.44172829 245.65359755 213.45097578 245.65209763 231.46025577 C245.65201772 232.43098367 245.6519378 233.40171157 245.65185547 234.40185547 C245.65177371 235.37377039 245.65169195 236.3456853 245.65160771 237.34705219 C245.65079494 253.09564791 245.66993041 268.84414796 245.6981322 284.59271601 C245.72686919 300.76795857 245.74067203 316.94315449 245.73894465 333.11842322 C245.738281 342.19768549 245.74376211 351.27684747 245.76530075 360.35608673 C245.78352333 368.08698555 245.7878511 375.81773863 245.7742819 383.54864964 C245.7677575 387.491201 245.7676157 391.43347287 245.7849884 395.37599754 C245.80074805 398.98971138 245.79782655 402.60292477 245.78042014 406.21662661 C245.77591225 408.13363725 245.79098497 410.05066358 245.80689943 411.96761346 C245.7275881 421.92966129 243.39705847 431.42040804 236.28125 438.7890625 C227.2008576 446.1647069 218.8275034 448.23649106 207.35742188 448.22143555 C206.1858252 448.2316272 205.01422852 448.24181885 203.80712891 448.25231934 C199.95470356 448.28238783 196.10252715 448.29170623 192.25 448.30078125 C189.57098639 448.31763248 186.89200543 448.3356388 184.2130127 448.35517883 C177.89509674 448.39873684 171.57720637 448.42734927 165.25918627 448.45050222 C158.06196388 448.47761153 150.86487403 448.52151931 143.66774654 448.56679094 C128.87232618 448.65948373 114.07684873 448.73123457 99.28125 448.7890625 C99.72404297 449.5639502 100.16683594 450.33883789 100.62304688 451.13720703 C103.37890625 455.95996094 106.13476562 460.78271484 108.890625 465.60546875 C109.23834961 466.21356384 109.58607422 466.82165894 109.94433594 467.44818115 C110.65088572 468.68550113 111.35595332 469.9236686 112.05957031 471.16265869 C113.86010213 474.32875197 115.68508276 477.47547353 117.5625 480.59667969 C117.92960083 481.21541962 118.29670166 481.83415955 118.67492676 482.47164917 C119.68645944 484.17429631 120.70907818 485.87034333 121.73242188 487.56591797 C123.42322814 491.08452206 124.03464353 493.9038583 124.28125 497.7890625 C122.61276065 502.51644899 120.53647189 505.16974679 116.28125 507.7890625 C112.90635689 508.37972908 109.57255743 508.33301938 106.15345764 508.3037262 C104.60981676 508.31414449 104.60981676 508.31414449 103.0349912 508.32477325 C99.58178306 508.34309018 96.12925826 508.33276549 92.67602539 508.32250977 C90.20229069 508.32956583 87.72856032 508.33830952 85.25483704 508.34861755 C79.23020167 508.36881453 73.20583538 508.3701302 67.18119366 508.36199201 C62.28432028 508.3556919 57.38750199 508.35682913 52.4906292 508.36326408 C51.79364795 508.36416574 51.09666671 508.36506739 50.37856482 508.36599637 C48.96264286 508.36784758 47.54672092 508.36971014 46.13079899 508.37158393 C32.85290253 508.38816321 19.57511232 508.37944226 6.29722225 508.36259835 C-5.84910278 508.34790247 -17.99518042 508.36252786 -30.14147358 508.39136852 C-42.61476474 508.42076493 -55.08794173 508.43173403 -67.56126601 508.42218632 C-68.97228179 508.42116377 -70.3832976 508.42016916 -71.79431343 508.4192028 C-72.48855001 508.41872641 -73.18278658 508.41825002 -73.89806063 508.4177592 C-78.78802559 508.41559531 -83.67788243 508.42539776 -88.56782341 508.43997383 C-95.1514778 508.45932484 -101.73474602 508.45241313 -108.31840706 508.42777443 C-110.73633722 508.42275588 -113.15430226 508.42628316 -115.57220459 508.43892288 C-118.86999413 508.45479999 -122.16625713 508.43995104 -125.463974 508.41725159 C-126.42360532 508.42908732 -127.38323665 508.44092304 -128.37194771 508.45311743 C-132.76746412 508.39153787 -135.77253171 508.21626523 -139.26982975 505.39823818 C-141.74713332 502.75882179 -142.96489108 501.30707078 -143.71875 497.7890625 C-143.336178 491.82241077 -141.44731506 487.89169189 -138.53125 482.8515625 C-138.11991821 482.13762329 -137.70858643 481.42368408 -137.28479004 480.68811035 C-133.32961239 473.83301778 -129.34554475 466.99498221 -125.35546875 460.16015625 C-124.71395874 459.06086792 -124.07244873 457.96157959 -123.41149902 456.82897949 C-121.84744679 454.14889184 -120.28319355 451.46892174 -118.71875 448.7890625 C-119.32797995 448.78759594 -119.93720989 448.78612938 -120.56490135 448.78461838 C-135.42300112 448.74748613 -150.28089326 448.68838675 -165.13879967 448.60515976 C-172.32414474 448.56543465 -179.50938133 448.53300919 -186.69482422 448.51806641 C-192.96131102 448.50501583 -199.22755847 448.47796506 -205.49391043 448.43444943 C-208.80867661 448.41191031 -212.12308617 448.39823622 -215.43793869 448.39717865 C-219.14827842 448.39480495 -222.8576917 448.36768984 -226.56787109 448.33496094 C-227.65400696 448.3399913 -228.74014282 448.34502167 -229.85919189 448.35020447 C-239.38599166 448.22069624 -248.70873085 445.5757232 -255.71875 438.7890625 C-257.99966914 435.93253405 -259.96027773 432.99271601 -261.71875 429.7890625 C-262.23379121 428.85592161 -262.74883242 427.92278072 -263.27948093 426.96136284 C-265.61195718 421.40375962 -265.13493038 415.4819246 -265.10643005 409.55569458 C-265.11060595 408.20312841 -265.11608487 406.85056575 -265.12274987 405.49800956 C-265.13718991 401.79141418 -265.13296432 398.08504143 -265.12558305 394.37843394 C-265.12085007 390.37696295 -265.13336242 386.37554003 -265.14360046 382.37408447 C-265.16079153 374.5386745 -265.1616278 366.70334471 -265.15638756 358.86792077 C-265.15234503 352.49849566 -265.15379041 346.12909424 -265.15913582 339.75967026 C-265.16025845 338.39951293 -265.16025845 338.39951293 -265.16140376 337.01187768 C-265.16293525 335.16972399 -265.1644736 333.32757031 -265.16601873 331.48541664 C-265.17974501 314.21203295 -265.17430529 296.93869457 -265.16283352 279.66531192 C-265.15290207 263.8676013 -265.16584006 248.07000783 -265.18976771 232.27231528 C-265.21415886 216.04618996 -265.22376648 199.82011919 -265.21711498 183.5939759 C-265.21362266 174.48626224 -265.21585564 165.37863866 -265.23336601 156.27093887 C-265.24808823 148.51733741 -265.24872325 140.76388945 -265.2312951 133.010291 C-265.22278266 129.05571087 -265.22064132 125.10140496 -265.23594666 121.14683914 C-265.24979682 117.52333994 -265.2450269 113.90034979 -265.22570742 110.27688001 C-265.22017347 108.35222597 -265.23421633 106.427546 -265.24906152 104.50294125 C-265.18845168 97.36289895 -264.28933107 92.01353138 -260.71875 85.7890625 C-260.03232422 84.59216797 -260.03232422 84.59216797 -259.33203125 83.37109375 C-253.61592558 75.59513018 -246.31433808 71.08523698 -236.85522461 69.22631836 C-231.15260734 68.43946573 -225.39378446 68.91403096 -219.66015625 69.10546875 C-187.79175581 69.83253119 -162.72817986 68.33572533 -134.34814453 52.31298828 C-127.21603622 48.34049942 -119.71429126 45.16322478 -112.24081421 41.89639282 C-108.05841425 40.06008022 -103.89752613 38.17631344 -99.734375 36.296875 C-98.06844451 35.54701134 -96.40242875 34.79733712 -94.73632812 34.04785156 C-88.83671694 31.39248021 -82.93859472 28.73380663 -77.04064941 26.07473755 C-72.86455049 24.19243377 -68.68739302 22.31254995 -64.5078125 20.43798828 C-62.86457235 19.70087085 -61.22134315 18.96372899 -59.578125 18.2265625 C-58.7687146 17.8635202 -57.9593042 17.50047791 -57.12536621 17.12643433 C-52.08389932 14.86178434 -47.0539116 12.57339287 -42.03082275 10.26828003 C-38.7196973 8.75120665 -35.40335022 7.24578499 -32.08605957 5.74224854 C-30.52719615 5.03226756 -28.97071835 4.31702135 -27.41687012 3.59613037 C-25.27350045 2.60233933 -23.12242784 1.62745502 -20.96875 0.65625 C-20.34969788 0.36347168 -19.73064575 0.07069336 -19.09283447 -0.23095703 C-12.43198462 -3.18640497 -6.62975877 -3.10435547 0 0 Z " fill="#010101" transform="translate(265.71875,3.2109375)"/>
<path d="M0 0 C1.1127832 -0.00021904 1.1127832 -0.00021904 2.24804688 -0.0004425 C4.69371491 0.0002527 7.13930625 0.00802673 9.58496094 0.01586914 C11.28318236 0.01773471 12.98140431 0.01915796 14.67962646 0.02015686 C19.14466849 0.02397107 23.60967788 0.033792 28.07470703 0.04486084 C32.63280801 0.05509852 37.19091427 0.05965953 41.74902344 0.06469727 C50.68914193 0.07541525 59.62923622 0.09247852 68.56933594 0.11352539 C68.59511719 1.29430664 68.62089844 2.47508789 68.64746094 3.69165039 C68.70374991 5.24897862 68.76109708 6.80626886 68.81933594 8.36352539 C68.83351563 9.14083008 68.84769531 9.91813477 68.86230469 10.71899414 C68.89453125 11.4730957 68.92675781 12.22719727 68.95996094 13.00415039 C68.99138184 14.04104004 68.99138184 14.04104004 69.0234375 15.09887695 C69.56992167 17.77752895 69.56992167 17.77752895 73.56933594 21.11352539 C78.84933594 21.44352539 84.12933594 21.77352539 89.56933594 22.11352539 C89.56933594 57.75352539 89.56933594 93.39352539 89.56933594 130.11352539 C84.28933594 130.44352539 79.00933594 130.77352539 73.56933594 131.11352539 C69.49834561 134.76915581 69.49834561 134.76915581 68.95996094 139.22290039 C68.92773438 139.97700195 68.89550781 140.73110352 68.86230469 141.50805664 C68.848125 142.28536133 68.83394531 143.06266602 68.81933594 143.86352539 C68.7896875 144.65629883 68.76003906 145.44907227 68.72949219 146.26586914 C68.65905807 148.21454633 68.61190111 150.16404034 68.56933594 152.11352539 C67.52132812 152.1509082 66.47332031 152.18829102 65.39355469 152.22680664 C64.01461289 152.29247054 62.63570823 152.35891774 61.25683594 152.42602539 C60.56654297 152.44858398 59.87625 152.47114258 59.16503906 152.49438477 C55.30470144 152.66728212 55.30470144 152.66728212 51.87304688 154.2668457 C48.94326112 158.41682688 50.10400895 164.66612335 50.13183594 169.55102539 C50.11185547 170.79174805 50.091875 172.0324707 50.07128906 173.31079102 C50.07193359 174.5025293 50.07257813 175.69426758 50.07324219 176.92211914 C50.07138916 178.01322998 50.06953613 179.10434082 50.06762695 180.22851562 C50.69831337 183.85519272 51.72071709 184.83702848 54.56933594 187.11352539 C57.19579493 187.70729974 57.19579493 187.70729974 60.12599945 187.61130333 C61.26360041 187.62050092 62.40120137 187.62969851 63.57327509 187.63917482 C64.82345344 187.62888769 66.07363179 187.61860057 67.36169434 187.60800171 C68.70286101 187.6111777 70.0440245 187.6161047 71.38517904 187.62263453 C75.07408625 187.63547907 78.76255543 187.62331244 82.4514339 187.60710597 C86.42831512 187.59396452 90.40514687 187.60384616 94.3820343 187.61087036 C102.17410803 187.6209614 109.9660122 187.60966237 117.75806487 187.59116976 C126.82764882 187.5704177 135.89719596 187.57054172 144.9667992 187.57151492 C161.14668453 187.57251657 177.32649084 187.55418219 193.50634766 187.52514648 C209.21502116 187.49697084 224.9236251 187.48280491 240.63232422 187.48413086 C242.0835158 187.48425073 242.0835158 187.48425073 243.56402439 187.48437302 C244.52979438 187.48445373 245.49556436 187.48453444 246.49060011 187.48461759 C264.36153895 187.48599667 282.23244818 187.47422062 300.10337743 187.45631116 C306.42891986 187.45027357 312.75445685 187.44815146 319.08000183 187.44724655 C326.78621337 187.4458834 334.49237501 187.43696975 342.19856536 187.41858093 C346.13217372 187.40933581 350.06571819 187.40325731 353.99933815 187.40576935 C357.59790057 187.40795602 361.19632155 187.40094369 364.79485446 187.3864723 C366.71836154 187.38111421 368.64188815 187.38557108 370.56539679 187.39033639 C372.27179823 187.38066306 372.27179823 187.38066306 374.01267242 187.3707943 C375.48805095 187.36868102 375.48805095 187.36868102 376.99323511 187.36652505 C379.68398015 187.10226615 381.30852953 186.57518732 383.56933594 185.11352539 C385.79821839 180.65576048 384.79926323 174.57125769 384.81933594 169.67602539 C384.83996094 168.42241211 384.86058594 167.16879883 384.88183594 165.87719727 C384.88699219 164.67772461 384.89214844 163.47825195 384.89746094 162.24243164 C384.90680664 161.13971924 384.91615234 160.03700684 384.92578125 158.90087891 C384.79031717 156.12339792 384.79031717 156.12339792 383.2722168 154.26245117 C380.43095732 152.34546664 377.2046299 152.53461343 373.88183594 152.42602539 C373.17994141 152.39186523 372.47804688 152.35770508 371.75488281 152.32250977 C370.02692206 152.24022592 368.29815521 152.17519299 366.56933594 152.11352539 C366.53195312 150.92114258 366.49457031 149.72875977 366.45605469 148.50024414 C366.39039562 146.93380639 366.32394825 145.36740155 366.25683594 143.80102539 C366.23427734 143.0153418 366.21171875 142.2296582 366.18847656 141.42016602 C366.13530273 140.28417969 366.13530273 140.28417969 366.08105469 139.12524414 C366.05487061 138.42874756 366.02868652 137.73225098 366.00170898 137.01464844 C365.44861834 134.58273603 364.47234376 133.6805539 362.56933594 132.11352539 C357.46596015 129.5618375 351.2624462 130.49306607 345.56933594 130.11352539 C345.56933594 94.47352539 345.56933594 58.83352539 345.56933594 22.11352539 C350.51933594 21.78352539 355.46933594 21.45352539 360.56933594 21.11352539 C364.56933594 19.61352539 364.56933594 19.61352539 365.56933594 17.11352539 C365.80207803 14.23441952 365.9890635 11.37206044 366.13183594 8.48852539 C366.17501953 7.68672852 366.21820313 6.88493164 366.26269531 6.05883789 C366.36885051 4.07727429 366.46960449 2.09542268 366.56933594 0.11352539 C376.34025749 0.0206395 386.11107312 -0.05033369 395.88234711 -0.0937233 C400.42009635 -0.1145535 404.9575424 -0.14278707 409.49511719 -0.18823242 C413.87827006 -0.23185396 418.2611322 -0.25564604 422.64448547 -0.26598358 C424.31257195 -0.2733458 425.98064342 -0.28772242 427.64860535 -0.30939484 C445.76306185 -0.53529453 445.76306185 -0.53529453 452.10266113 5.59661865 C455.68301399 9.62377639 456.69465432 12.7508445 456.69238377 18.01170635 C456.69437481 19.02786421 456.69636586 20.04402208 456.69841725 21.0909726 C456.6955044 22.21060908 456.69259156 23.33024557 456.68959045 24.48381042 C456.69087209 26.26400061 456.69087209 26.26400061 456.69217962 28.08015424 C456.69354481 31.37985461 456.69040865 34.67949602 456.68540156 37.97918928 C456.68109164 41.53540699 456.68254387 45.09162282 456.68330383 48.64784241 C456.68382872 54.81107708 456.68068556 60.97430118 456.67506599 67.13753319 C456.66694628 76.04858186 456.66433529 84.95962542 456.663078 93.87067739 C456.66088823 108.3275248 456.65423015 122.78436658 456.64477539 137.24121094 C456.63559936 151.28645805 456.62851946 165.33170363 456.62426758 179.37695312 C456.62387349 180.67511395 456.62387349 180.67511395 456.62347145 181.99950024 C456.62216643 186.34106899 456.62090272 190.68263775 456.61965954 195.02420652 C456.60928924 231.05398349 456.59159872 267.08375391 456.56933594 303.11352539 C452.93933594 303.11352539 449.30933594 303.11352539 445.56933594 303.11352539 C445.56569031 302.20199203 445.56204468 301.29045868 445.55828857 300.3513031 C445.52035981 291.74432257 445.46345157 283.13771908 445.3854332 274.53100491 C445.34599048 270.10659275 445.31378639 265.68237866 445.29833984 261.2578125 C445.28315197 256.98465734 445.24866912 252.71204682 445.20102692 248.4391346 C445.18623498 246.81218269 445.17829618 245.18515301 445.17745209 243.55813408 C445.17507395 241.27189526 445.14792967 238.98715136 445.11523438 236.70117188 C445.10635193 235.40211411 445.09746948 234.10305634 445.08831787 232.76463318 C444.31099195 227.29604063 442.17164446 223.59566078 438.06933594 219.80102539 C433.53961467 216.74346353 430.72732404 215.86235139 425.18182373 215.84609985 C423.86686417 215.83756989 422.5519046 215.82903992 421.19709778 215.82025146 C419.74142444 215.82095048 418.2857512 215.82187354 416.83007812 215.82299805 C415.29568657 215.81701303 413.76129803 215.81020754 412.22691345 215.80264282 C408.05937461 215.78497 403.8919179 215.78028682 399.72434521 215.77901125 C397.11914148 215.77758949 394.51395862 215.77331936 391.90876007 215.76801682 C382.81562475 215.74951029 373.72254806 215.74134673 364.62939453 215.74291992 C356.16106462 215.74412058 347.69298989 215.72303487 339.22472453 215.6914326 C331.94898303 215.66525094 324.67332475 215.65455346 317.39753652 215.65583074 C313.05449153 215.65633994 308.71167318 215.65068033 304.36867523 215.62947464 C300.28099161 215.61006104 296.19375001 215.60998887 292.10605049 215.6245079 C290.60972254 215.62659345 289.1133667 215.62191022 287.61708641 215.60978699 C279.71703721 215.54994942 273.31570023 215.58672416 266.56933594 220.11352539 C260.75390731 225.86987361 260.90395771 232.78458787 260.85021973 240.51782227 C260.85359238 242.11222483 260.85761492 243.70662616 260.86230469 245.30102539 C260.84976212 246.78216572 260.83499887 248.26328895 260.81799316 249.74438477 C260.77076725 255.20059868 260.76633112 260.65711536 260.75683594 266.11352539 C260.69496094 278.32352539 260.63308594 290.53352539 260.56933594 303.11352539 C212.71933594 303.11352539 164.86933594 303.11352539 115.56933594 303.11352539 C117.56933594 294.11352539 117.56933594 294.11352539 118.66699219 291.26586914 C123.18998279 275.46477209 119.56888992 257.84979784 111.81933594 243.80102539 C102.47135336 229.42134811 88.84838152 217.73044607 71.83886719 213.97290039 C53.73832225 210.62775362 36.07096749 212.8834114 20.56933594 223.11352539 C18.33127924 224.93103222 16.20679852 226.79646154 14.12792969 228.79321289 C12.56933594 230.11352539 12.56933594 230.11352539 10.56933594 230.11352539 C10.31796875 230.66911133 10.06660156 231.22469727 9.80761719 231.79711914 C8.36721892 234.49161811 6.6211606 236.75561154 4.75683594 239.17602539 C-3.37434764 250.24387962 -6.81947713 261.24575263 -6.74316406 274.86352539 C-6.7411499 275.83346436 -6.73913574 276.80340332 -6.73706055 277.80273438 C-6.63712389 284.95089806 -5.62569596 291.30096526 -3.43066406 298.11352539 C-3.10066406 299.76352539 -2.77066406 301.41352539 -2.43066406 303.11352539 C-8.70066406 303.11352539 -14.97066406 303.11352539 -21.43066406 303.11352539 C-21.52190645 266.28841507 -21.59269862 229.46332485 -21.63492538 192.63812431 C-21.63992823 188.29097592 -21.64510552 183.94382775 -21.65039062 179.59667969 C-21.65196449 178.29851652 -21.65196449 178.29851652 -21.65357015 176.97412784 C-21.67097731 162.9593926 -21.70251671 148.94472296 -21.73927525 134.93002664 C-21.77667601 120.55058914 -21.79889808 106.171186 -21.80701804 91.79170185 C-21.81250761 82.91814134 -21.82984844 74.04476625 -21.86232993 65.17126281 C-21.88346715 59.08708644 -21.88986591 53.003006 -21.88466957 46.91879558 C-21.88210653 43.40801422 -21.88604658 39.89755698 -21.90748596 36.38683319 C-21.9273484 32.5792385 -21.92261571 28.77244113 -21.91168213 24.96482849 C-21.92333349 23.85684338 -21.93498486 22.74885826 -21.9469893 21.60729784 C-21.89041283 14.33208495 -20.82716682 9.90062596 -15.86816406 4.37133789 C-10.54385718 0.17555258 -6.61368142 -0.03415031 0 0 Z " fill="#E5F7FE" transform="translate(38.4306640625,88.886474609375)"/>
<path d="M0 0 C50.49 0 100.98 0 153 0 C153 21.12 153 42.24 153 64 C151.2134959 65.7865041 148.56750258 65.12616481 146.15393066 65.12698364 C144.24823051 65.13121338 144.24823051 65.13121338 142.30403137 65.13552856 C140.88302598 65.13358397 139.46202073 65.13153578 138.04101562 65.12939453 C136.55482439 65.13074852 135.06863349 65.13252844 133.58244324 65.13470459 C129.53503541 65.13927922 125.48765296 65.13748924 121.44024467 65.1343255 C117.21394658 65.13180205 112.98765072 65.1341394 108.76135254 65.13571167 C101.66267505 65.13753341 94.56400795 65.13512694 87.46533203 65.13037109 C79.24639189 65.12492846 71.02747655 65.12669112 62.80853701 65.1321975 C55.76482063 65.1367285 48.72111175 65.13737924 41.67739439 65.13475883 C37.46484184 65.13319598 33.25230096 65.13300249 29.03974915 65.13629532 C25.08029831 65.13917385 21.12087961 65.13719868 17.16143227 65.13140106 C15.7041002 65.13007337 14.24676545 65.13046774 12.78943443 65.13266373 C10.80831368 65.13537482 8.82718706 65.13138077 6.84606934 65.12698364 C5.73476402 65.12660662 4.62345871 65.12622959 3.47847748 65.12584114 C1 65 1 65 0 64 C0 42.88 0 21.76 0 0 Z " fill="#579AF4" transform="translate(315,345)"/>
<path d="M0 0 C1.75455564 0.00282196 3.50912309 0.001235 5.26367188 -0.00442505 C10.0204005 -0.00729272 14.77460402 0.05146428 19.53074598 0.12131453 C24.50340919 0.18385884 29.47613135 0.18970411 34.4491272 0.2015686 C43.86304948 0.23264142 53.27580947 0.31468941 62.68922007 0.4150635 C73.40724953 0.52686591 84.12533473 0.58182674 94.84380221 0.63201785 C116.889518 0.73652413 138.93418772 0.91239793 160.97900391 1.13525391 C161.40230484 1.87017563 161.82560577 2.60509735 162.26173401 3.36228943 C163.86125068 6.1387351 165.46124324 8.91490585 167.0615387 11.69090271 C167.74867452 12.88307711 168.43563094 14.07535493 169.12239075 15.26774597 C173.75622115 23.31290479 178.41884104 31.33921091 183.17810059 39.31091309 C185.97900391 44.03003805 185.97900391 44.03003805 185.97900391 45.13525391 C110.73900391 45.13525391 35.49900391 45.13525391 -42.02099609 45.13525391 C-36.39456529 33.8823923 -36.39456529 33.8823923 -33.68115234 29.26025391 C-33.09269531 28.25478516 -32.50423828 27.24931641 -31.89794922 26.21337891 C-31.29917969 25.19759766 -30.70041016 24.18181641 -30.08349609 23.13525391 C-29.19114258 21.61158203 -29.19114258 21.61158203 -28.28076172 20.05712891 C-26.53406834 17.07915988 -24.78292073 14.10424168 -23.02099609 11.13525391 C-22.72453092 10.32407923 -22.42806574 9.51290455 -22.12261677 8.67714882 C-17.71508834 -1.50387689 -9.63727349 -0.21611458 0 0 Z " fill="#00485F" transform="translate(184.02099609375,449.86474609375)"/>
<path d="M0 0 C4.28650992 -0.17412392 8.57110523 -0.30055511 12.86010742 -0.38452148 C14.31620163 -0.41954781 15.77205274 -0.46718806 17.22729492 -0.52807617 C29.33939925 -1.02185501 29.33939925 -1.02185501 33.34716797 1.44433594 C35.06114378 3.20784862 36.513811 5.04429292 38 7 C53.72957665 18.83814492 70.64483686 22.25190195 90 20 C99.60750938 18.13233094 113.30359802 13.43477818 119.24001408 5.30099392 C121.86819673 1.93520422 123.89458274 0.22425663 128.14417839 -0.63786125 C132.18142128 -0.86292733 136.16628856 -0.86690033 140.20678711 -0.79467773 C141.75459706 -0.79270142 143.30241358 -0.79381506 144.85021973 -0.79777527 C149.0382677 -0.79977882 153.22490433 -0.75870681 157.41262507 -0.70975757 C161.79409878 -0.66591496 166.17560702 -0.66187992 170.55726624 -0.65357971 C178.84822219 -0.63184716 187.13852987 -0.57443732 195.42920071 -0.50413328 C204.87044591 -0.42581522 214.31172253 -0.38738463 223.75321186 -0.35226524 C243.16917506 -0.27915229 262.58453535 -0.15607557 282 0 C282.18973389 0.61633301 282.37946777 1.23266602 282.57495117 1.86767578 C282.83252197 2.6770459 283.09009277 3.48641602 283.35546875 4.3203125 C283.60707764 5.12227051 283.85868652 5.92422852 284.11791992 6.75048828 C285.82484039 11.10353706 288.82150795 13.31176451 292.75371742 15.60816193 C296.32378587 17.13882264 298.76003174 17.38177826 302.62802124 17.39440918 C303.94573013 17.40575897 305.26343903 17.41710876 306.62107849 17.42880249 C308.06948914 17.4261595 309.51789922 17.42318833 310.96630859 17.41992188 C312.50099809 17.42726621 314.03568207 17.43585351 315.57035828 17.44558716 C319.72954746 17.46777419 323.88853837 17.47073524 328.04777861 17.46883965 C331.52431764 17.46871981 335.00081487 17.47728939 338.47734225 17.48561716 C346.6818634 17.50484131 354.88628281 17.50773874 363.09082031 17.50097656 C371.5444914 17.49433704 379.99772603 17.51719866 388.45130861 17.55429029 C395.71861129 17.58501561 402.98577378 17.59634424 410.25314009 17.59245348 C414.58949093 17.59038881 418.92550211 17.59582126 423.26179123 17.62034607 C427.34138638 17.64265758 431.42027342 17.64069939 435.49987221 17.62041855 C436.99297578 17.61701617 438.48612743 17.62206434 439.97916603 17.63640213 C447.97258244 17.70783823 454.85286725 17.75026368 461 12 C464.23942325 8.09607967 465.51999489 5.04005364 466 0 C469.96 0 473.92 0 478 0 C478.80670459 14.6999503 478.80670459 14.6999503 474 21 C468.74812447 25.98928175 464.60879734 27.29838529 457.47110367 27.26006222 C456.70574016 27.26386789 455.94037665 27.26767356 455.1518203 27.27159455 C452.57219475 27.28194886 449.99278767 27.27799712 447.41314697 27.27415466 C445.55098433 27.27860499 443.68882359 27.28391835 441.82666564 27.29002339 C436.69762207 27.30423853 431.56863899 27.30586601 426.43957853 27.30542648 C420.91250568 27.30707159 415.38545797 27.32013238 409.85839844 27.33161926 C397.76757502 27.35449206 385.67676913 27.3623923 373.58592701 27.36744571 C366.03919271 27.37070003 358.49246353 27.3772209 350.94573212 27.3844471 C330.05899889 27.40401588 309.17226911 27.42049978 288.28552628 27.42332363 C287.61733925 27.42341769 286.94915222 27.42351175 286.26071711 27.42360866 C283.55280708 27.42398715 280.84489705 27.42435115 278.13698702 27.42471164 C276.09881166 27.42498336 274.0606363 27.42526004 272.02246094 27.42553711 C271.01222402 27.42566914 271.01222402 27.42566914 269.98157827 27.42580384 C248.82068557 27.42870921 227.65988422 27.45080365 206.49902344 27.48706055 C182.73031961 27.52778457 158.96166848 27.55146259 135.19292235 27.55178314 C122.60594449 27.55236833 110.01908419 27.56089966 97.43213654 27.58978081 C86.7151152 27.61425789 75.99825431 27.62160239 65.2812126 27.60653328 C59.81185663 27.59934942 54.34281771 27.60028554 48.87349701 27.62294388 C43.86703785 27.64348621 38.86114042 27.64097778 33.85468766 27.62006903 C32.043098 27.61656506 30.2314682 27.62152242 28.4199312 27.63577347 C12.06516752 27.75614613 12.06516752 27.75614613 6.35189223 23.37731415 C2.44797308 19.399983 0.07688501 15.46954656 -0.09765625 9.86328125 C-0.08605469 8.69152344 -0.07445313 7.51976562 -0.0625 6.3125 C-0.05347656 5.13300781 -0.04445313 3.95351563 -0.03515625 2.73828125 C-0.02355469 1.83464844 -0.01195313 0.93101562 0 0 Z " fill="#007A9F" transform="translate(17,408)"/>
<path d="M0 0 C9.17797668 6.93908415 17.84817211 17.95166145 19.625 29.6875 C20.34480274 45.94165029 18.77390652 59.43845868 7.9375 72.5 C-1.54021959 82.40852503 -13.50667983 87.62074946 -27.14599609 88.15820312 C-40.9728364 88.33028577 -52.13562996 83.95668059 -62.59765625 74.7265625 C-73.72143559 63.19555424 -76.89891422 49.96220859 -76.6484375 34.4296875 C-76.17788294 22.57264438 -69.75747951 11.58423674 -61.3125 3.4375 C-43.32653642 -11.60248679 -19.51600997 -12.73799453 0 0 Z " fill="#F7C204" transform="translate(123.375,325.3125)"/>
<path d="M0 0 C0.62545715 0.28773285 1.25091431 0.5754657 1.89532471 0.87191772 C3.25014835 1.49597893 4.60349687 2.12325057 5.95550537 2.75338745 C9.65366235 4.47659828 13.3628687 6.17579327 17.0703125 7.87890625 C17.84289398 8.23462204 18.61547546 8.59033783 19.41146851 8.95683289 C26.94404826 12.41988777 34.51932998 15.78347076 42.10244751 19.13406372 C64.99521076 29.25089651 87.74154949 39.68424293 110.4609375 50.18359375 C110.4609375 50.51359375 110.4609375 50.84359375 110.4609375 51.18359375 C30.2709375 51.18359375 -49.9190625 51.18359375 -132.5390625 51.18359375 C-129.22798684 48.97620998 -125.77887454 47.37264706 -122.171875 45.7265625 C-121.43429459 45.38764984 -120.69671417 45.04873718 -119.93678284 44.69955444 C-117.51379651 43.58730961 -115.08901547 42.47904359 -112.6640625 41.37109375 C-110.96847518 40.59438663 -109.27291884 39.81761187 -107.57739258 39.04077148 C-94.9167043 33.24587117 -82.22269496 27.52801872 -69.50802612 21.8525238 C-61.36344261 18.21502038 -53.23035112 14.55191428 -45.09634399 10.89083862 C-42.48191807 9.71413428 -39.86731224 8.53783043 -37.25268555 7.36157227 C-36.43191025 6.99193863 -35.61113495 6.62230499 -34.76548767 6.24147034 C-33.17069843 5.52424676 -31.57506535 4.80889608 -29.97853088 4.0955658 C-26.66800088 2.61336401 -23.38570932 1.10821304 -20.12988281 -0.4921875 C-18.69660645 -1.19408203 -18.69660645 -1.19408203 -17.234375 -1.91015625 C-16.45336426 -2.30912109 -15.67235352 -2.70808594 -14.86767578 -3.11914062 C-9.52545808 -4.71878141 -4.81807136 -2.23881515 0 0 Z " fill="#57585A" transform="translate(266.5390625,21.81640625)"/>
<path d="M0 0 C0.80118256 -0.0127597 1.60236511 -0.02551941 2.42782593 -0.03866577 C3.71386215 -0.04200424 3.71386215 -0.04200424 5.02587891 -0.04541016 C5.91602692 -0.05206696 6.80617493 -0.05872375 7.72329712 -0.06558228 C9.60441017 -0.07569612 11.48555901 -0.08039969 13.36669922 -0.08007812 C16.235469 -0.08444681 19.10269416 -0.12076656 21.97119141 -0.15869141 C23.80191533 -0.16456084 25.63264654 -0.16852939 27.46337891 -0.17041016 C28.74334244 -0.19196671 28.74334244 -0.19196671 30.04916382 -0.21395874 C35.46927153 -0.17265611 38.59968259 0.6501093 42.87744141 4.29052734 C46.10990385 9.13922101 45.24627974 14.46598562 45.25244141 20.16552734 C45.27693359 21.35017578 45.30142578 22.53482422 45.32666016 23.75537109 C45.33246094 25.47046875 45.33246094 25.47046875 45.33837891 27.22021484 C45.34659668 28.26419434 45.35481445 29.30817383 45.36328125 30.38378906 C44.74959697 34.0554097 43.47603152 35.66337501 40.87744141 38.29052734 C38.08007231 39.9592736 35.99804362 40.54580345 32.75488281 40.58105469 C31.95370026 40.59381439 31.1525177 40.6065741 30.32705688 40.61972046 C29.4696994 40.62194611 28.61234192 40.62417175 27.72900391 40.62646484 C26.8388559 40.63312164 25.94870789 40.63977844 25.03158569 40.64663696 C23.15047264 40.65675081 21.26932381 40.66145437 19.38818359 40.66113281 C16.51941381 40.6655015 13.65218866 40.70182125 10.78369141 40.73974609 C8.95296748 40.74561553 7.12223627 40.74958407 5.29150391 40.75146484 C4.43819489 40.76583588 3.58488586 40.78020691 2.70571899 40.79501343 C-2.71438872 40.7537108 -5.84479977 39.93094539 -10.12255859 36.29052734 C-13.35502104 31.44183367 -12.49139693 26.11506907 -12.49755859 20.41552734 C-12.52205078 19.23087891 -12.54654297 18.04623047 -12.57177734 16.82568359 C-12.57564453 15.68228516 -12.57951172 14.53888672 -12.58349609 13.36083984 C-12.59171387 12.31686035 -12.59993164 11.27288086 -12.60839844 10.19726562 C-11.99471415 6.52564498 -10.72114871 4.91767967 -8.12255859 2.29052734 C-5.3251895 0.62178109 -3.2431608 0.03525124 0 0 Z " fill="#010203" transform="translate(333.12255859375,362.70947265625)"/>
<path d="M0 0 C2.875 2.25 2.875 2.25 5 5 C5 6.32 5 7.64 5 9 C5.86625 9.20625 6.7325 9.4125 7.625 9.625 C11.76359497 11.31109425 14.50316648 13.26753214 17 17 C17.6875 20.5625 17.6875 20.5625 17 24 C14.52506641 27.42123173 13.11736219 28.79477021 8.9375 29.5625 C6 29 6 29 4.25 27 C1.00522783 24.11575807 -1.75465672 24.68949478 -5.953125 24.859375 C-6.62859375 24.90578125 -7.3040625 24.9521875 -8 25 C-7.34 26.98 -6.68 28.96 -6 31 C-4.80503906 31.14695312 -4.80503906 31.14695312 -3.5859375 31.296875 C4.31032727 32.41118974 9.44102934 33.94752069 14.8125 40.0625 C18.75022697 45.35030479 18.61949707 50.62179777 18 57 C16.2459981 62.96360648 12.9663171 66.4372073 8 70 C7.01 70.495 7.01 70.495 6 71 C5.54625 72.134375 5.0925 73.26875 4.625 74.4375 C3 78 3 78 1.25 79.5 C-2.16963999 80.25992 -4.63127686 79.91874267 -8 79 C-10.34885769 76.12075508 -11 74.72527067 -11 71 C-12.299375 70.7215625 -12.299375 70.7215625 -13.625 70.4375 C-18.03674436 68.5584237 -20.50477787 66.07070368 -23 62 C-23.6875 58.875 -23.6875 58.875 -23 56 C-20.9375 53.0625 -20.9375 53.0625 -18 51 C-14.375 51 -14.375 51 -11 52 C-10.525625 52.515625 -10.05125 53.03125 -9.5625 53.5625 C-7.53493227 55.42786232 -6.52065728 55.19696908 -3.8125 55.1875 C-2.554375 55.125625 -1.29625 55.06375 0 55 C0.38218767 53.34385343 0.71395102 51.67542976 1 50 C-0.58430963 48.41569037 -2.36852674 48.84378817 -4.5625 48.75 C-11.35467326 48.12811289 -15.73173927 45.38764287 -20.375 40.5 C-24.39627461 34.31342368 -25.07106566 28.24378618 -24 21 C-21.86088074 16.43408682 -19.01438062 13.65636393 -14.8125 10.9375 C-11.22187148 8.46395591 -10.55349271 5.99469554 -9 2 C-5.48175489 -0.34549674 -4.14224306 -0.57991403 0 0 Z " fill="#030300" transform="translate(98,325)"/>
<path d="M0 0 C6.27 0 12.54 0 19 0 C19 36.3 19 72.6 19 110 C12.73 110 6.46 110 0 110 C0 73.7 0 37.4 0 0 Z " fill="#8E9093" transform="translate(281,110)"/>
<path d="M0 0 C6.27 0 12.54 0 19 0 C19 36.3 19 72.6 19 110 C12.73 110 6.46 110 0 110 C0 73.7 0 37.4 0 0 Z " fill="#8E9093" transform="translate(212,110)"/>
<path d="M0 0 C6.27 0 12.54 0 19 0 C19 35.64 19 71.28 19 108 C12.73 108 6.46 108 0 108 C0 72.36 0 36.72 0 0 Z " fill="#929497" transform="translate(349,111)"/>
<path d="M0 0 C6.27 0 12.54 0 19 0 C19 35.64 19 71.28 19 108 C12.73 108 6.46 108 0 108 C0 72.36 0 36.72 0 0 Z " fill="#929497" transform="translate(144,111)"/>
<path d="M0 0 C5.94 0 11.88 0 18 0 C18 35.64 18 71.28 18 108 C12.06 108 6.12 108 0 108 C0 72.36 0 36.72 0 0 Z " fill="#DDEEF5" transform="translate(247,111)"/>
<path d="M0 0 C5.61 0 11.22 0 17 0 C17 35.64 17 71.28 17 108 C11.39 108 5.78 108 0 108 C0 72.36 0 36.72 0 0 Z " fill="#E5F7FE" transform="translate(316,111)"/>
<path d="M0 0 C5.61 0 11.22 0 17 0 C17 35.64 17 71.28 17 108 C11.39 108 5.78 108 0 108 C0 72.36 0 36.72 0 0 Z " fill="#E5F7FE" transform="translate(179,111)"/>
<path d="M0 0 C87.78 0 175.56 0 266 0 C266 1.98 266 3.96 266 6 C178.22 6 90.44 6 0 6 C0 4.02 0 2.04 0 0 Z " fill="#76787A" transform="translate(123,89)"/>
<path d="M0 0 C100.32 0 200.64 0 304 0 C304 1.65 304 3.3 304 5 C203.68 5 103.36 5 0 5 C0 3.35 0 1.7 0 0 Z " fill="#4B4B4D" transform="translate(104,256)"/>
<path d="M0 0 C1.90570015 -0.00422974 1.90570015 -0.00422974 3.84989929 -0.00854492 C5.27090468 -0.00660032 6.69190993 -0.00455214 8.11291504 -0.00241089 C9.59910627 -0.00376488 11.08529717 -0.00554479 12.57148743 -0.00772095 C16.61889525 -0.01229558 20.6662777 -0.0105056 24.71368599 -0.00734186 C28.93998409 -0.00481841 33.16627995 -0.00715576 37.39257812 -0.00872803 C44.49125562 -0.01054977 51.58992272 -0.0081433 58.68859863 -0.00338745 C66.90753878 0.00205518 75.12645412 0.00029252 83.34539366 -0.00521386 C90.38911003 -0.00974486 97.43281892 -0.0103956 104.47653627 -0.00777519 C108.68908883 -0.00621234 112.90162971 -0.00601885 117.11418152 -0.00931168 C121.07363235 -0.01219021 125.03305106 -0.01021504 128.9924984 -0.00441742 C130.44983046 -0.00308972 131.90716521 -0.0034841 133.36449623 -0.00568008 C135.34561698 -0.00839118 137.3267436 -0.00439713 139.30786133 0 C140.9748193 0.00056554 140.9748193 0.00056554 142.67545319 0.0011425 C145.15393066 0.12698364 145.15393066 0.12698364 146.15393066 1.12698364 C146.15393066 3.76698364 146.15393066 6.40698364 146.15393066 9.12698364 C95.66393066 9.12698364 45.17393066 9.12698364 -6.84606934 9.12698364 C-6.84606934 0.00232262 -6.84606934 0.00232262 0 0 Z " fill="#5496EE" transform="translate(321.8460693359375,319.8730163574219)"/>
<path d="M0 0 C87.78 0 175.56 0 266 0 C266 1.65 266 3.3 266 5 C178.22 5 90.44 5 0 5 C0 3.35 0 1.7 0 0 Z " fill="#77797C" transform="translate(123,235)"/>
<path d="M0 0 C1.71714455 -0.0237545 1.71714455 -0.0237545 3.46897888 -0.04798889 C4.70132767 -0.04302902 5.93367645 -0.03806915 7.20336914 -0.03295898 C8.47322159 -0.03915756 9.74307404 -0.04535614 11.05140686 -0.05174255 C13.7376294 -0.05884861 16.42235614 -0.05759688 19.10839844 -0.04296875 C22.54316415 -0.02579035 25.97625548 -0.04926336 29.41083431 -0.08445835 C32.69586559 -0.11175722 35.98075644 -0.10169403 39.26586914 -0.09545898 C41.11135597 -0.1153463 41.11135597 -0.1153463 42.99412537 -0.13563538 C52.48295076 -0.03203495 52.48295076 -0.03203495 55.60791016 2.85009766 C57.30102539 5.53344727 57.30102539 5.53344727 57.42602539 9.09594727 C56.01883615 13.39569215 55.24326889 14.30096627 51.30102539 16.53344727 C47.11641576 17.14678577 42.96186815 17.1175538 38.73852539 17.09985352 C37.51447998 17.10605209 36.29043457 17.11225067 35.02929688 17.11863708 C32.44377436 17.12573462 29.85820614 17.12256252 27.27270508 17.10986328 C23.31514504 17.09599674 19.35994832 17.13007618 15.40258789 17.16821289 C12.88956648 17.16916406 10.3765421 17.16730536 7.86352539 17.16235352 C6.68008545 17.17561172 5.49664551 17.18886993 4.27734375 17.20252991 C-3.89033101 17.10986096 -3.89033101 17.10986096 -7.94897461 14.21679688 C-10.25199421 10.68547873 -10.3760954 8.67140768 -9.69897461 4.53344727 C-6.7574389 0.71147989 -4.75033939 0.02925809 0 0 Z " fill="#010204" transform="translate(406.698974609375,386.466552734375)"/>
<path d="M0 0 C1.93359375 -0.01933594 1.93359375 -0.01933594 3.90625 -0.0390625 C8.30333449 0.77344224 9.78371895 2.13850694 12.5 5.625 C13.0625 8.6875 13.0625 8.6875 12.5 11.625 C10.6329009 13.92775556 9.14352259 15.30323871 6.5 16.625 C4.2126402 16.79984831 1.91858557 16.89220049 -0.375 16.9375 C-1.60992187 16.97488281 -2.84484375 17.01226562 -4.1171875 17.05078125 C-7.5 16.625 -7.5 16.625 -9.87890625 14.8203125 C-12.19437267 11.68466882 -12.56809051 9.50615897 -12.5 5.625 C-8.77668358 0.71536779 -6.05851349 -0.06058513 0 0 Z " fill="#060606" transform="translate(213.5,356.375)"/>
<path d="M0 0 C1.93359375 -0.01933594 1.93359375 -0.01933594 3.90625 -0.0390625 C8.30284201 0.77335124 9.7869442 2.13605135 12.5 5.625 C13.07210224 9.12912619 12.94040698 10.84904484 11.1875 13.9375 C7.92830324 17.19669676 4.01095302 16.90950164 -0.375 17.0625 C-6.80613575 17.02263759 -6.80613575 17.02263759 -9.53125 15.4609375 C-11.50805436 13.21979302 -12.42320022 10.93987909 -13.125 8.0625 C-11.38293589 1.26844996 -6.34489648 -0.06344896 0 0 Z " fill="#050606" transform="translate(181.5,356.375)"/>
<path d="M0 0 C3.3701459 1.226026 3.92623147 1.8893472 6 5 C5.92606486 9.06643247 5.75345875 11.2229523 2.87890625 14.1875 C-2.31860838 17.45974802 -8.0765014 16.81289062 -14 16 C-17.375 13.875 -17.375 13.875 -19 11 C-19.80573518 7.13247112 -19.31339525 5.55446851 -17.375 2.125 C-11.99770975 -1.26070127 -6.19289885 -0.70122216 0 0 Z " fill="#050505" transform="translate(252,357)"/>
<path d="M0 0 C1.29808594 -0.0103125 2.59617187 -0.020625 3.93359375 -0.03125 C8.05931871 0.57273126 9.73933338 1.46869822 12.5625 4.5 C13.2265625 6.5 13.2265625 6.5 13.1875 8.5 C13.20039063 9.16 13.21328125 9.82 13.2265625 10.5 C12.1662054 13.69354609 10.3845487 14.76189184 7.5625 16.5 C1.44400987 17.52682994 -4.45037218 17.71435589 -9.8125 14.4375 C-11.85473737 10.74576321 -12.11800965 8.65867007 -11.4375 4.5 C-8.21569565 0.01992878 -5.33018525 -0.04226113 0 0 Z " fill="#030404" transform="translate(276.4375,356.5)"/>
<path d="M0 0 C2.875 1.5 2.875 1.5 5 4 C6.12160229 8.7267525 6.12160229 8.7267525 5 12 C1.34551027 16.64851093 -2.72851425 21.5638019 -8.8125 22.375 C-12 22 -12 22 -14.875 19.875 C-17.43249785 16.41485585 -17.59876096 15.21197367 -17 11 C-15.33602741 8.73202312 -13.87550282 7.03221512 -11.875 5.125 C-11.400625 4.62742187 -10.92625 4.12984375 -10.4375 3.6171875 C-7.00027309 0.2356994 -4.76909635 -0.70211696 0 0 Z " fill="#040505" transform="translate(195,282)"/>
<path d="M0 0 C4.86266049 1.14415541 7.71401566 4.29132796 11.1875 7.75 C12.03248047 8.48476563 12.03248047 8.48476563 12.89453125 9.234375 C14.85018699 11.52680529 14.71943286 13.89933897 14.6015625 16.80859375 C14.1875 18.75 14.1875 18.75 12.0625 21.25 C8.65952223 23.02546666 6.98435593 23.2063755 3.1875 22.75 C0.44921875 20.80859375 0.44921875 20.80859375 -2.125 18.1875 C-2.98738281 17.34058594 -3.84976562 16.49367188 -4.73828125 15.62109375 C-7.20628222 12.20493422 -7.71465146 9.93791746 -7.8125 5.75 C-5.48494292 2.43499446 -3.92297362 1.0461263 0 0 Z " fill="#040404" transform="translate(277.8125,305.25)"/>
<path d="M0 0 C3.625 0.9375 3.625 0.9375 6.1875 3 C7.625 5.9375 7.625 5.9375 7.9375 9.1875 C5.95923245 14.839693 2.33988454 18.33648786 -2.375 21.9375 C-6.125 23.3125 -6.125 23.3125 -9.375 22.9375 C-12.3125 20.9375 -12.3125 20.9375 -14.375 17.9375 C-14.89300045 13.70962968 -14.84980018 11.65261913 -12.46875 8.06640625 C-4.59690652 0.27754907 -4.59690652 0.27754907 0 0 Z " fill="#040505" transform="translate(170.375,304.0625)"/>
<path d="M0 0 C5.61756618 2.05977426 9.15228991 5.65443772 12.75 10.375 C14.0625 14.125 14.0625 14.125 13.75 17.375 C12.3125 20.3125 12.3125 20.3125 9.75 22.375 C6.15318319 23.30521124 5.11210621 23.5602849 1.75 22.375 C-2.18450545 19.50538919 -5.55100526 16.4400843 -8.25 12.375 C-8.75379858 7.88879364 -8.76766961 6.12797398 -6.1875 2.375 C-3.25 0.375 -3.25 0.375 0 0 Z " fill="#040505" transform="translate(256.25,282.625)"/>
<path d="M0 0 C8.91 0 17.82 0 27 0 C27 2.64 27 5.28 27 8 C18.09 8 9.18 8 0 8 C0 5.36 0 2.72 0 0 Z " fill="#E9D200" transform="translate(336,379)"/>
</svg>
